<mxfile host="app.diagrams.net" modified="2020-10-31T09:51:20.642Z" agent="5.0 (Windows NT 10.0; Win64; x64) AppleWebKit/537.36 (KHTML, like Gecko) Chrome/86.0.4240.111 Safari/537.36" etag="8cvPkMq9LCK5LsmXgkr0" version="13.8.1" type="github">
  <diagram id="Oi71niZhSWN3tvf8vtrV" name="Page-1">
    <mxGraphModel dx="1449" dy="629" grid="1" gridSize="10" guides="1" tooltips="1" connect="1" arrows="1" fold="1" page="1" pageScale="1" pageWidth="850" pageHeight="1100" math="0" shadow="0">
      <root>
        <mxCell id="0" />
        <mxCell id="1" parent="0" />
        <mxCell id="twLO75x5J4cmUw99lRNE-1" value="&lt;b&gt;K8 Scheduler&lt;/b&gt;" style="rounded=1;whiteSpace=wrap;html=1;" parent="1" vertex="1">
          <mxGeometry x="110" y="120" width="150" height="60" as="geometry" />
        </mxCell>
        <mxCell id="twLO75x5J4cmUw99lRNE-2" value="&lt;b&gt;STORK&amp;nbsp;&lt;/b&gt;" style="rounded=1;whiteSpace=wrap;html=1;" parent="1" vertex="1">
          <mxGeometry x="580" y="120" width="150" height="60" as="geometry" />
        </mxCell>
        <mxCell id="twLO75x5J4cmUw99lRNE-3" value="&lt;b&gt;Stroage CSI plugin&lt;/b&gt;" style="rounded=1;whiteSpace=wrap;html=1;" parent="1" vertex="1">
          <mxGeometry x="360" y="290" width="120" height="60" as="geometry" />
        </mxCell>
        <mxCell id="twLO75x5J4cmUw99lRNE-5" value="" style="endArrow=classic;startArrow=classic;html=1;exitX=0.75;exitY=0;exitDx=0;exitDy=0;" parent="1" source="twLO75x5J4cmUw99lRNE-3" edge="1">
          <mxGeometry width="50" height="50" relative="1" as="geometry">
            <mxPoint x="530" y="220" as="sourcePoint" />
            <mxPoint x="580" y="180" as="targetPoint" />
          </mxGeometry>
        </mxCell>
        <mxCell id="twLO75x5J4cmUw99lRNE-6" value="" style="endArrow=classic;startArrow=classic;html=1;exitX=0.25;exitY=0;exitDx=0;exitDy=0;" parent="1" source="twLO75x5J4cmUw99lRNE-3" edge="1">
          <mxGeometry width="50" height="50" relative="1" as="geometry">
            <mxPoint x="60" y="290" as="sourcePoint" />
            <mxPoint x="190" y="180" as="targetPoint" />
          </mxGeometry>
        </mxCell>
        <mxCell id="twLO75x5J4cmUw99lRNE-7" value="" style="endArrow=classic;startArrow=classic;html=1;exitX=0.75;exitY=0;exitDx=0;exitDy=0;entryX=0;entryY=0.5;entryDx=0;entryDy=0;" parent="1" target="twLO75x5J4cmUw99lRNE-2" edge="1">
          <mxGeometry width="50" height="50" relative="1" as="geometry">
            <mxPoint x="260" y="150" as="sourcePoint" />
            <mxPoint x="390" y="40" as="targetPoint" />
          </mxGeometry>
        </mxCell>
        <mxCell id="twLO75x5J4cmUw99lRNE-12" value="&lt;b&gt;PV1 ( snap )&lt;/b&gt;" style="rounded=0;whiteSpace=wrap;html=1;" parent="1" vertex="1">
          <mxGeometry x="110" y="400" width="160" height="80" as="geometry" />
        </mxCell>
        <mxCell id="twLO75x5J4cmUw99lRNE-14" value="cProxy Data mover" style="text;html=1;strokeColor=none;fillColor=none;align=center;verticalAlign=middle;whiteSpace=wrap;rounded=0;" parent="1" vertex="1">
          <mxGeometry x="120" y="410" width="110" height="10" as="geometry" />
        </mxCell>
        <mxCell id="twLO75x5J4cmUw99lRNE-15" value="&lt;b&gt;PV2&amp;nbsp; (snap)&amp;nbsp;&lt;/b&gt;" style="rounded=0;whiteSpace=wrap;html=1;" parent="1" vertex="1">
          <mxGeometry x="290" y="400" width="140" height="80" as="geometry" />
        </mxCell>
        <mxCell id="twLO75x5J4cmUw99lRNE-16" value="cProxy Data mover" style="text;html=1;strokeColor=none;fillColor=none;align=center;verticalAlign=middle;whiteSpace=wrap;rounded=0;" parent="1" vertex="1">
          <mxGeometry x="300" y="405" width="120" height="15" as="geometry" />
        </mxCell>
        <mxCell id="twLO75x5J4cmUw99lRNE-17" value="&lt;b&gt;PV3 (snap)&amp;nbsp;&lt;/b&gt;" style="rounded=0;whiteSpace=wrap;html=1;" parent="1" vertex="1">
          <mxGeometry x="480" y="400" width="140" height="80" as="geometry" />
        </mxCell>
        <mxCell id="twLO75x5J4cmUw99lRNE-18" value="cProxy Data mover" style="text;html=1;strokeColor=none;fillColor=none;align=center;verticalAlign=middle;whiteSpace=wrap;rounded=0;" parent="1" vertex="1">
          <mxGeometry x="485" y="405" width="130" height="20" as="geometry" />
        </mxCell>
        <mxCell id="twLO75x5J4cmUw99lRNE-19" value="&lt;b&gt;PV4 (snap)&amp;nbsp;&lt;/b&gt;" style="rounded=0;whiteSpace=wrap;html=1;" parent="1" vertex="1">
          <mxGeometry x="660" y="400" width="150" height="80" as="geometry" />
        </mxCell>
        <mxCell id="twLO75x5J4cmUw99lRNE-20" value="cProxy Data mover" style="text;html=1;strokeColor=none;fillColor=none;align=center;verticalAlign=middle;whiteSpace=wrap;rounded=0;" parent="1" vertex="1">
          <mxGeometry x="670" y="405" width="120" height="20" as="geometry" />
        </mxCell>
        <mxCell id="twLO75x5J4cmUw99lRNE-21" value="&lt;b&gt;POWERPROTECT CONTROLLER&lt;/b&gt;" style="rounded=1;whiteSpace=wrap;html=1;" parent="1" vertex="1">
          <mxGeometry x="20" y="260" width="240" height="60" as="geometry" />
        </mxCell>
        <mxCell id="twLO75x5J4cmUw99lRNE-22" value="" style="endArrow=classic;startArrow=classic;html=1;entryX=0;entryY=0.5;entryDx=0;entryDy=0;" parent="1" target="twLO75x5J4cmUw99lRNE-3" edge="1">
          <mxGeometry width="50" height="50" relative="1" as="geometry">
            <mxPoint x="160" y="400" as="sourcePoint" />
            <mxPoint x="210" y="350" as="targetPoint" />
          </mxGeometry>
        </mxCell>
        <mxCell id="twLO75x5J4cmUw99lRNE-23" value="" style="endArrow=classic;startArrow=classic;html=1;" parent="1" edge="1">
          <mxGeometry width="50" height="50" relative="1" as="geometry">
            <mxPoint x="360" y="400" as="sourcePoint" />
            <mxPoint x="410" y="350" as="targetPoint" />
          </mxGeometry>
        </mxCell>
        <mxCell id="twLO75x5J4cmUw99lRNE-26" value="" style="endArrow=classic;startArrow=classic;html=1;exitX=0.5;exitY=0;exitDx=0;exitDy=0;" parent="1" source="twLO75x5J4cmUw99lRNE-17" edge="1">
          <mxGeometry width="50" height="50" relative="1" as="geometry">
            <mxPoint x="410" y="400" as="sourcePoint" />
            <mxPoint x="460" y="350" as="targetPoint" />
          </mxGeometry>
        </mxCell>
        <mxCell id="twLO75x5J4cmUw99lRNE-27" value="" style="endArrow=classic;startArrow=classic;html=1;entryX=0.558;entryY=0.041;entryDx=0;entryDy=0;entryPerimeter=0;" parent="1" target="twLO75x5J4cmUw99lRNE-19" edge="1">
          <mxGeometry width="50" height="50" relative="1" as="geometry">
            <mxPoint x="480" y="320" as="sourcePoint" />
            <mxPoint x="680" y="240" as="targetPoint" />
          </mxGeometry>
        </mxCell>
        <mxCell id="twLO75x5J4cmUw99lRNE-28" value="&lt;b&gt;Data Domain ( backup target)&lt;/b&gt;" style="rounded=1;whiteSpace=wrap;html=1;" parent="1" vertex="1">
          <mxGeometry x="770" y="230" width="240" height="60" as="geometry" />
        </mxCell>
        <mxCell id="twLO75x5J4cmUw99lRNE-29" value="&lt;b&gt;Worker node 1&lt;/b&gt;" style="text;html=1;strokeColor=none;fillColor=none;align=center;verticalAlign=middle;whiteSpace=wrap;rounded=0;" parent="1" vertex="1">
          <mxGeometry x="140" y="490" width="100" height="20" as="geometry" />
        </mxCell>
        <mxCell id="twLO75x5J4cmUw99lRNE-30" value="&lt;b&gt;Worker node 2&lt;/b&gt;" style="text;html=1;strokeColor=none;fillColor=none;align=center;verticalAlign=middle;whiteSpace=wrap;rounded=0;" parent="1" vertex="1">
          <mxGeometry x="310" y="490" width="100" height="20" as="geometry" />
        </mxCell>
        <mxCell id="twLO75x5J4cmUw99lRNE-31" value="&lt;b&gt;Worker node 3&lt;/b&gt;" style="text;html=1;strokeColor=none;fillColor=none;align=center;verticalAlign=middle;whiteSpace=wrap;rounded=0;" parent="1" vertex="1">
          <mxGeometry x="490" y="490" width="100" height="20" as="geometry" />
        </mxCell>
        <mxCell id="twLO75x5J4cmUw99lRNE-32" value="&lt;b&gt;Worker node 4&lt;/b&gt;" style="text;html=1;strokeColor=none;fillColor=none;align=center;verticalAlign=middle;whiteSpace=wrap;rounded=0;" parent="1" vertex="1">
          <mxGeometry x="680" y="490" width="100" height="20" as="geometry" />
        </mxCell>
        <mxCell id="twLO75x5J4cmUw99lRNE-33" value="" style="endArrow=none;dashed=1;html=1;dashPattern=1 3;strokeWidth=2;entryX=0.21;entryY=0.993;entryDx=0;entryDy=0;entryPerimeter=0;" parent="1" target="twLO75x5J4cmUw99lRNE-28" edge="1">
          <mxGeometry width="50" height="50" relative="1" as="geometry">
            <mxPoint x="230" y="400" as="sourcePoint" />
            <mxPoint x="280" y="350" as="targetPoint" />
          </mxGeometry>
        </mxCell>
        <mxCell id="twLO75x5J4cmUw99lRNE-34" value="" style="endArrow=none;dashed=1;html=1;dashPattern=1 3;strokeWidth=2;entryX=0.21;entryY=0.993;entryDx=0;entryDy=0;entryPerimeter=0;" parent="1" edge="1">
          <mxGeometry width="50" height="50" relative="1" as="geometry">
            <mxPoint x="370" y="400" as="sourcePoint" />
            <mxPoint x="960.4000000000001" y="289.58000000000004" as="targetPoint" />
          </mxGeometry>
        </mxCell>
        <mxCell id="twLO75x5J4cmUw99lRNE-35" value="" style="endArrow=none;dashed=1;html=1;dashPattern=1 3;strokeWidth=2;entryX=0.839;entryY=1.037;entryDx=0;entryDy=0;entryPerimeter=0;" parent="1" target="twLO75x5J4cmUw99lRNE-28" edge="1">
          <mxGeometry width="50" height="50" relative="1" as="geometry">
            <mxPoint x="550" y="400" as="sourcePoint" />
            <mxPoint x="1140.4" y="289.58000000000004" as="targetPoint" />
          </mxGeometry>
        </mxCell>
        <mxCell id="twLO75x5J4cmUw99lRNE-36" value="Filter and prioritize cProxy Data mover based on PVC (snap) mount location" style="text;html=1;strokeColor=none;fillColor=none;align=center;verticalAlign=middle;whiteSpace=wrap;rounded=0;" parent="1" vertex="1">
          <mxGeometry x="280" y="120" width="300" height="20" as="geometry" />
        </mxCell>
        <mxCell id="twLO75x5J4cmUw99lRNE-38" value="" style="endArrow=classic;startArrow=classic;html=1;exitX=0.605;exitY=0.019;exitDx=0;exitDy=0;exitPerimeter=0;" parent="1" source="twLO75x5J4cmUw99lRNE-21" edge="1">
          <mxGeometry width="50" height="50" relative="1" as="geometry">
            <mxPoint x="115" y="230" as="sourcePoint" />
            <mxPoint x="165" y="180" as="targetPoint" />
          </mxGeometry>
        </mxCell>
        <mxCell id="twLO75x5J4cmUw99lRNE-41" value="" style="endArrow=none;dashed=1;html=1;" parent="1" edge="1">
          <mxGeometry width="50" height="50" relative="1" as="geometry">
            <mxPoint x="400" y="320" as="sourcePoint" />
            <mxPoint x="450" y="270" as="targetPoint" />
          </mxGeometry>
        </mxCell>
        <mxCell id="twLO75x5J4cmUw99lRNE-42" value="&lt;b&gt;Start cProxy 1 on Worker node 1&amp;nbsp;&lt;/b&gt;" style="text;html=1;strokeColor=none;fillColor=none;align=center;verticalAlign=middle;whiteSpace=wrap;rounded=0;" parent="1" vertex="1">
          <mxGeometry x="230" y="190" width="140" height="20" as="geometry" />
        </mxCell>
        <mxCell id="twLO75x5J4cmUw99lRNE-43" value="&lt;b&gt;Where is cProxy 1 best suited ?&amp;nbsp;&lt;/b&gt;" style="text;html=1;strokeColor=none;fillColor=none;align=center;verticalAlign=middle;whiteSpace=wrap;rounded=0;" parent="1" vertex="1">
          <mxGeometry x="40" y="220" width="110" height="20" as="geometry" />
        </mxCell>
        <mxCell id="wnjxLRrYWu7FSONBilei-1" value="" style="endArrow=classic;startArrow=classic;html=1;" edge="1" parent="1">
          <mxGeometry width="50" height="50" relative="1" as="geometry">
            <mxPoint x="260" y="400" as="sourcePoint" />
            <mxPoint x="260" y="175" as="targetPoint" />
          </mxGeometry>
        </mxCell>
      </root>
    </mxGraphModel>
  </diagram>
</mxfile>
